<?xml version="1.0" encoding="utf-8"?>
<!-- Generator: Adobe Illustrator 25.1.0, SVG Export Plug-In . SVG Version: 6.00 Build 0)  -->
<svg version="1.1" id="Layer_1" xmlns="http://www.w3.org/2000/svg" xmlns:xlink="http://www.w3.org/1999/xlink" x="0px" y="0px"
	 viewBox="0 0 612 612" style="enable-background:new 0 0 612 612;" xml:space="preserve">
<style type="text/css">
	.st0{fill:#FFFFFF;stroke:#FFFFFF;stroke-width:8;stroke-miterlimit:10;}
	.st1{fill:#FFFFFF;stroke:#FFFFFF;stroke-width:9;stroke-miterlimit:10;}
</style>
<g>
	<path class="st0" d="M413.9,541.5H198.1c-70.3,0-127.6-57.2-127.6-127.6V198.1c0-70.3,57.2-127.6,127.6-127.6H414
		c70.3,0,127.6,57.2,127.6,127.6V414C541.5,484.3,484.3,541.5,413.9,541.5L413.9,541.5z M198.1,109.8c-48.7,0-88.3,39.6-88.3,88.3
		V414c0,48.7,39.6,88.3,88.3,88.3H414c48.7,0,88.3-39.6,88.3-88.3V198.1c0-48.7-39.6-88.3-88.3-88.3H198.1L198.1,109.8z M306,423.8
		c-64.9,0-117.8-52.8-117.8-117.8c0-64.9,52.8-117.8,117.8-117.8c64.9,0,117.8,52.8,117.8,117.8C423.8,370.9,370.9,423.8,306,423.8z
		 M306,227.5c-43.3,0-78.5,35.2-78.5,78.5s35.2,78.5,78.5,78.5s78.5-35.2,78.5-78.5S349.3,227.5,306,227.5z"/>
	<circle class="st1" cx="427.7" cy="184.3" r="25"/>
</g>
</svg>
